<?xml version="1.0" encoding="UTF-8" standalone="no"?>
<!-- Created with Inkscape (http://www.inkscape.org/) -->

<svg
   width="180mm"
   height="150mm"
   viewBox="0 0 180 150"
   version="1.1"
   id="svg5"
   inkscape:version="1.1.2 (0a00cf5339, 2022-02-04)"
   sodipodi:docname="chips-indexes.svg"
   xmlns:inkscape="http://www.inkscape.org/namespaces/inkscape"
   xmlns:sodipodi="http://sodipodi.sourceforge.net/DTD/sodipodi-0.dtd"
   xmlns="http://www.w3.org/2000/svg"
   xmlns:svg="http://www.w3.org/2000/svg">
  <sodipodi:namedview
     id="namedview7"
     pagecolor="#505050"
     bordercolor="#ffffff"
     borderopacity="1"
     inkscape:pageshadow="0"
     inkscape:pageopacity="0"
     inkscape:pagecheckerboard="true"
     inkscape:document-units="mm"
     showgrid="false"
     borderlayer="false"
     showborder="true"
     inkscape:showpageshadow="true"
     units="mm"
     fit-margin-left="0"
     fit-margin-top="0"
     fit-margin-right="0"
     fit-margin-bottom="0"
     inkscape:zoom="1.0528779"
     inkscape:cx="157.6631"
     inkscape:cy="310.10243"
     inkscape:window-width="1856"
     inkscape:window-height="1016"
     inkscape:window-x="64"
     inkscape:window-y="27"
     inkscape:window-maximized="1"
     inkscape:current-layer="layer1" />
  <defs
     id="defs2">
    <marker
       style="overflow:visible"
       id="Arrow1Send"
       refX="0"
       refY="0"
       orient="auto"
       inkscape:stockid="Arrow1Send"
       inkscape:isstock="true">
      <path
         transform="matrix(-0.2,0,0,-0.2,-1.2,0)"
         style="fill:context-stroke;fill-rule:evenodd;stroke:context-stroke;stroke-width:1pt"
         d="M 0,0 5,-5 -12.5,0 5,5 Z"
         id="path13381" />
    </marker>
    <marker
       style="overflow:visible"
       id="Arrow1Sstart"
       refX="0"
       refY="0"
       orient="auto"
       inkscape:stockid="Arrow1Sstart"
       inkscape:isstock="true">
      <path
         transform="matrix(0.2,0,0,0.2,1.2,0)"
         style="fill:context-stroke;fill-rule:evenodd;stroke:context-stroke;stroke-width:1pt"
         d="M 0,0 5,-5 -12.5,0 5,5 Z"
         id="path13378" />
    </marker>
  </defs>
  <g
     inkscape:label="Layer 1"
     inkscape:groupmode="layer"
     id="layer1"
     transform="translate(18.199804,19.802808)">
    <rect
       style="fill:#ffffff;fill-opacity:0.992277;stroke:#000000;stroke-width:2;stroke-linecap:round;stroke-linejoin:round;stroke-miterlimit:4;stroke-dasharray:none;stroke-opacity:1;paint-order:markers fill stroke"
       id="rect1001"
       width="30"
       height="30"
       x="10.800196"
       y="8.9998217"
       rx="0"
       ry="0" />
    <rect
       style="fill:#ffffff;fill-opacity:0.992277;stroke:#000000;stroke-width:2;stroke-linecap:round;stroke-linejoin:round;stroke-miterlimit:4;stroke-dasharray:none;stroke-opacity:1;paint-order:markers fill stroke"
       id="rect1273"
       width="30"
       height="30"
       x="40.800198"
       y="8.9998217"
       rx="0"
       ry="0" />
    <rect
       style="fill:#ffffff;fill-opacity:0.992277;stroke:#000000;stroke-width:2;stroke-linecap:round;stroke-linejoin:round;stroke-miterlimit:4;stroke-dasharray:none;stroke-opacity:1;paint-order:markers fill stroke"
       id="rect1275"
       width="30"
       height="30"
       x="70.800194"
       y="8.9998217"
       rx="0"
       ry="0" />
    <rect
       style="fill:#ffffff;fill-opacity:0.992277;stroke:#000000;stroke-width:2;stroke-linecap:round;stroke-linejoin:round;stroke-miterlimit:4;stroke-dasharray:none;stroke-opacity:1;paint-order:markers fill stroke"
       id="rect1277"
       width="30"
       height="30"
       x="100.80019"
       y="8.9998217"
       rx="0"
       ry="0" />
    <rect
       style="fill:#ffffff;fill-opacity:0.992277;stroke:#000000;stroke-width:2;stroke-linecap:round;stroke-linejoin:round;stroke-miterlimit:4;stroke-dasharray:none;stroke-opacity:1;paint-order:markers fill stroke"
       id="rect1279"
       width="30"
       height="30"
       x="130.8002"
       y="8.9998217"
       rx="0"
       ry="0" />
    <rect
       style="fill:#ffffff;fill-opacity:0.992277;stroke:#000000;stroke-width:2;stroke-linecap:round;stroke-linejoin:round;stroke-miterlimit:4;stroke-dasharray:none;stroke-opacity:1;paint-order:markers fill stroke"
       id="rect1281"
       width="30"
       height="30"
       x="10.800196"
       y="38.999821"
       rx="0"
       ry="0" />
    <rect
       style="fill:#50e847;fill-opacity:0.992277;stroke:#000000;stroke-width:2;stroke-linecap:round;stroke-linejoin:round;stroke-miterlimit:4;stroke-dasharray:none;stroke-opacity:1;paint-order:markers fill stroke"
       id="rect1283"
       width="30"
       height="30"
       x="40.800198"
       y="38.999821"
       rx="0"
       ry="0" />
    <rect
       style="fill:#50e847;fill-opacity:0.992277;stroke:#000000;stroke-width:2;stroke-linecap:round;stroke-linejoin:round;stroke-miterlimit:4;stroke-dasharray:none;stroke-opacity:1;paint-order:markers fill stroke"
       id="rect1285"
       width="30"
       height="30"
       x="70.800194"
       y="38.999821"
       rx="0"
       ry="0" />
    <rect
       style="fill:#50e847;fill-opacity:0.992277;stroke:#000000;stroke-width:2;stroke-linecap:round;stroke-linejoin:round;stroke-miterlimit:4;stroke-dasharray:none;stroke-opacity:1;paint-order:markers fill stroke"
       id="rect1287"
       width="30"
       height="30"
       x="100.80019"
       y="38.999821"
       rx="0"
       ry="0" />
    <rect
       style="fill:#ffffff;fill-opacity:0.992277;stroke:#000000;stroke-width:2;stroke-linecap:round;stroke-linejoin:round;stroke-miterlimit:4;stroke-dasharray:none;stroke-opacity:1;paint-order:markers fill stroke"
       id="rect1289"
       width="30"
       height="30"
       x="130.8002"
       y="38.999821"
       rx="0"
       ry="0" />
    <rect
       style="fill:#ffffff;fill-opacity:0.992277;stroke:#000000;stroke-width:2;stroke-linecap:round;stroke-linejoin:round;stroke-miterlimit:4;stroke-dasharray:none;stroke-opacity:1;paint-order:markers fill stroke"
       id="rect1291"
       width="30"
       height="30"
       x="10.800196"
       y="68.999825"
       rx="0"
       ry="0" />
    <rect
       style="fill:#50e847;fill-opacity:0.992277;stroke:#000000;stroke-width:2;stroke-linecap:round;stroke-linejoin:round;stroke-miterlimit:4;stroke-dasharray:none;stroke-opacity:1;paint-order:markers fill stroke"
       id="rect1293"
       width="30"
       height="30"
       x="40.800198"
       y="68.999825"
       rx="0"
       ry="0" />
    <rect
       style="fill:#50e847;fill-opacity:0.992277;stroke:#000000;stroke-width:2;stroke-linecap:round;stroke-linejoin:round;stroke-miterlimit:4;stroke-dasharray:none;stroke-opacity:1;paint-order:markers fill stroke"
       id="rect1295"
       width="30"
       height="30"
       x="70.800194"
       y="68.999825"
       rx="0"
       ry="0" />
    <rect
       style="fill:#50e847;fill-opacity:0.992277;stroke:#000000;stroke-width:2;stroke-linecap:round;stroke-linejoin:round;stroke-miterlimit:4;stroke-dasharray:none;stroke-opacity:1;paint-order:markers fill stroke"
       id="rect1297"
       width="30"
       height="30"
       x="100.80019"
       y="68.999825"
       rx="0"
       ry="0" />
    <rect
       style="fill:#ffffff;fill-opacity:0.992277;stroke:#000000;stroke-width:2;stroke-linecap:round;stroke-linejoin:round;stroke-miterlimit:4;stroke-dasharray:none;stroke-opacity:1;paint-order:markers fill stroke"
       id="rect1299"
       width="30"
       height="30"
       x="130.8002"
       y="68.999825"
       rx="0"
       ry="0" />
    <rect
       style="fill:#ffffff;fill-opacity:0.992277;stroke:#000000;stroke-width:2;stroke-linecap:round;stroke-linejoin:round;stroke-miterlimit:4;stroke-dasharray:none;stroke-opacity:1;paint-order:markers fill stroke"
       id="rect1301"
       width="30"
       height="30"
       x="10.800196"
       y="98.999825"
       rx="0"
       ry="0" />
    <rect
       style="fill:#ffffff;fill-opacity:0.992277;stroke:#000000;stroke-width:2;stroke-linecap:round;stroke-linejoin:round;stroke-miterlimit:4;stroke-dasharray:none;stroke-opacity:1;paint-order:markers fill stroke"
       id="rect1303"
       width="30"
       height="30"
       x="40.800198"
       y="98.999825"
       rx="0"
       ry="0" />
    <rect
       style="fill:#ffffff;fill-opacity:0.992277;stroke:#000000;stroke-width:2;stroke-linecap:round;stroke-linejoin:round;stroke-miterlimit:4;stroke-dasharray:none;stroke-opacity:1;paint-order:markers fill stroke"
       id="rect1305"
       width="30"
       height="30"
       x="70.800194"
       y="98.999825"
       rx="0"
       ry="0" />
    <rect
       style="fill:#ffffff;fill-opacity:0.992277;stroke:#000000;stroke-width:2;stroke-linecap:round;stroke-linejoin:round;stroke-miterlimit:4;stroke-dasharray:none;stroke-opacity:1;paint-order:markers fill stroke"
       id="rect1307"
       width="30"
       height="30"
       x="100.80019"
       y="98.999825"
       rx="0"
       ry="0" />
    <rect
       style="fill:#ffffff;fill-opacity:0.992277;stroke:#000000;stroke-width:2;stroke-linecap:round;stroke-linejoin:round;stroke-miterlimit:4;stroke-dasharray:none;stroke-opacity:1;paint-order:markers fill stroke"
       id="rect1309"
       width="30"
       height="30"
       x="130.8002"
       y="98.999825"
       rx="0"
       ry="0" />
    <g
       aria-label="left"
       id="text3533"
       style="font-size:9.87778px;line-height:1;letter-spacing:0px;word-spacing:0px;stroke-width:0.264583">
      <path
         d="m 48.384627,20.177488 h 0.887457 v 7.504797 h -0.887457 z"
         id="path27588" />
      <path
         d="m 55.749554,24.759466 v 0.434082 h -4.080372 q 0.05788,0.916395 0.549837,1.398709 0.496783,0.47749 1.379417,0.47749 0.511252,0 0.988742,-0.125401 0.482314,-0.125402 0.954981,-0.376205 v 0.839226 q -0.47749,0.202571 -0.979096,0.30868 -0.501606,0.106109 -1.017682,0.106109 -1.2926,0 -2.049832,-0.752409 -0.752409,-0.752409 -0.752409,-2.035363 0,-1.326362 0.713824,-2.102886 0.718647,-0.781348 1.934077,-0.781348 1.090028,0 1.721859,0.704177 0.636654,0.699355 0.636654,1.905139 z m -0.887457,-0.26045 q -0.0096,-0.728293 -0.409966,-1.162375 -0.395497,-0.434082 -1.051444,-0.434082 -0.742762,0 -1.191314,0.419612 -0.443728,0.419613 -0.511252,1.181669 z"
         id="path27590" />
      <path
         d="m 59.940859,20.177488 v 0.737939 h -0.848872 q -0.47749,0 -0.665593,0.192926 -0.183279,0.192925 -0.183279,0.694531 v 0.47749 h 1.46141 v 0.689709 h -1.46141 v 4.712202 h -0.89228 v -4.712202 h -0.848871 v -0.689709 h 0.848871 V 21.90417 q 0,-0.901926 0.419613,-1.311893 0.419613,-0.414789 1.331185,-0.414789 z"
         id="path27592" />
      <path
         d="m 61.387798,20.746618 v 1.533756 h 1.827968 v 0.689709 h -1.827968 v 2.932466 q 0,0.660769 0.178456,0.848871 0.183279,0.188103 0.73794,0.188103 h 0.911572 v 0.742762 h -0.911572 q -1.027328,0 -1.418002,-0.381027 -0.390674,-0.385851 -0.390674,-1.398709 v -2.932466 h -0.651123 v -0.689709 h 0.651123 v -1.533756 z"
         id="path27594" />
    </g>
    <g
       aria-label="right"
       id="text4077"
       style="font-size:9.87778px;line-height:1;letter-spacing:0px;word-spacing:0px;stroke-width:0.264583">
      <path
         d="m 137.92644,22.152562 q -0.14952,-0.08682 -0.32798,-0.125402 -0.17363,-0.04341 -0.38585,-0.04341 -0.75241,0 -1.15755,0.49196 -0.40032,0.487136 -0.40032,1.403532 v 2.84565 h -0.89228 v -5.401911 h 0.89228 v 0.839225 q 0.27974,-0.49196 0.72829,-0.728293 0.44855,-0.241157 1.09003,-0.241157 0.0916,0 0.20257,0.01447 0.11093,0.0096 0.24598,0.03376 z"
         id="path27597" />
      <path
         d="m 138.8573,21.322983 h 0.88746 v 5.401911 h -0.88746 z m 0,-2.102887 h 0.88746 v 1.12379 h -0.88746 z"
         id="path27599" />
      <path
         d="m 145.15632,23.961237 q 0,-0.964627 -0.40033,-1.495171 -0.39549,-0.530545 -1.11414,-0.530545 -0.71382,0 -1.11414,0.530545 -0.3955,0.530544 -0.3955,1.495171 0,0.959804 0.3955,1.490349 0.40032,0.530545 1.11414,0.530545 0.71865,0 1.11414,-0.530545 0.40033,-0.530545 0.40033,-1.490349 z m 0.88745,2.093241 q 0,1.379416 -0.61254,2.049832 -0.61253,0.675239 -1.8762,0.675239 -0.46784,0 -0.88263,-0.07235 -0.41479,-0.06752 -0.80546,-0.212218 v -0.863341 q 0.39067,0.212218 0.7717,0.313504 0.38103,0.101285 0.77652,0.101285 0.87299,0 1.30707,-0.458197 0.43409,-0.453375 0.43409,-1.374594 v -0.438905 q -0.27492,0.47749 -0.70418,0.713824 -0.42926,0.236334 -1.02733,0.236334 -0.99357,0 -1.60128,-0.757233 -0.60772,-0.757232 -0.60772,-2.006424 0,-1.254015 0.60772,-2.011247 0.60771,-0.757232 1.60128,-0.757232 0.59807,0 1.02733,0.236334 0.42926,0.236333 0.70418,0.713824 v -0.819933 h 0.88745 z"
         id="path27601" />
      <path
         d="m 152.36208,23.464454 v 3.26044 h -0.88746 v -3.231501 q 0,-0.766878 -0.29903,-1.147906 -0.29904,-0.381027 -0.89711,-0.381027 -0.71864,0 -1.13343,0.458197 -0.41479,0.458198 -0.41479,1.249192 v 3.053045 h -0.89228 v -7.504798 h 0.89228 v 2.942112 q 0.31832,-0.487137 0.74758,-0.728293 0.43409,-0.241157 0.99839,-0.241157 0.93087,0 1.40836,0.578776 0.47749,0.573953 0.47749,1.69292 z"
         id="path27603" />
      <path
         d="m 155.00998,19.789226 v 1.533757 h 1.82797 v 0.689708 h -1.82797 v 2.932466 q 0,0.660769 0.17845,0.848872 0.18328,0.188102 0.73794,0.188102 h 0.91158 v 0.742763 h -0.91158 q -1.02732,0 -1.418,-0.381028 -0.39067,-0.385851 -0.39067,-1.398709 v -2.932466 h -0.65112 v -0.689708 h 0.65112 v -1.533757 z"
         id="path27605" />
    </g>
    <path
       style="fill:#7de847;fill-opacity:0.992277;stroke:#ff0808;stroke-width:2;stroke-linecap:round;stroke-linejoin:round;stroke-miterlimit:4;stroke-dasharray:none;stroke-opacity:1;paint-order:markers fill stroke"
       d="M 40.800196,8.8024536 V 129.19719"
       id="path5288" />
    <path
       style="fill:#7de847;fill-opacity:0.992277;stroke:#ff0808;stroke-width:2;stroke-linecap:round;stroke-linejoin:round;stroke-miterlimit:4;stroke-dasharray:none;stroke-opacity:1;paint-order:markers fill stroke"
       d="M 130.8002,8.8024536 V 129.19719"
       id="path6261" />
    <g
       aria-label="top"
       id="text6265"
       style="font-size:9.87778px;line-height:1;letter-spacing:0px;word-spacing:0px;stroke-width:0.264583">
      <path
         d="m 19.65311,49.504659 v 1.533757 h 1.827968 v 0.689708 H 19.65311 v 2.932466 q 0,0.660769 0.178456,0.848872 0.183279,0.188102 0.73794,0.188102 h 0.911572 v 0.742763 h -0.911572 q -1.027328,0 -1.418002,-0.381028 Q 18.76083,55.673448 18.76083,54.66059 v -2.932466 h -0.651123 v -0.689708 h 0.651123 v -1.533757 z"
         id="path27608" />
      <path
         d="m 24.741517,51.6606 q -0.713823,0 -1.128613,0.559484 -0.41479,0.55466 -0.41479,1.52411 0,0.96945 0.409967,1.528934 0.414789,0.554661 1.133436,0.554661 0.709001,0 1.123791,-0.559484 0.414789,-0.559484 0.414789,-1.524111 0,-0.959803 -0.414789,-1.519287 Q 25.450518,51.6606 24.741517,51.6606 Z m 0,-0.752409 q 1.157553,0 1.818322,0.752409 0.66077,0.752409 0.66077,2.083594 0,1.326362 -0.66077,2.083595 -0.660769,0.752409 -1.818322,0.752409 -1.162375,0 -1.823144,-0.752409 -0.655947,-0.757233 -0.655947,-2.083595 0,-1.331185 0.655947,-2.083594 0.660769,-0.752409 1.823144,-0.752409 z"
         id="path27610" />
      <path
         d="m 29.550182,55.63004 v 2.864942 h -0.89228 v -7.456566 h 0.89228 v 0.819933 q 0.279742,-0.482314 0.704178,-0.713824 0.429259,-0.236334 1.022505,-0.236334 0.983919,0 1.596457,0.781348 0.617361,0.781348 0.617361,2.054655 0,1.273308 -0.617361,2.054656 -0.612538,0.781348 -1.596457,0.781348 -0.593246,0 -1.022505,-0.231511 -0.424436,-0.236333 -0.704178,-0.718647 z m 3.019283,-1.885846 q 0,-0.979096 -0.405144,-1.533756 -0.40032,-0.559484 -1.104497,-0.559484 -0.704178,0 -1.109321,0.559484 -0.400321,0.55466 -0.400321,1.533756 0,0.979097 0.400321,1.53858 0.405143,0.554661 1.109321,0.554661 0.704177,0 1.104497,-0.554661 0.405144,-0.559483 0.405144,-1.53858 z"
         id="path27612" />
    </g>
    <g
       aria-label="bot."
       id="text8013"
       style="font-size:9.87778px;line-height:1;letter-spacing:0px;word-spacing:0px;stroke-width:0.264583">
      <path
         d="m 21.030116,114.98615 q 0,-0.9791 -0.405143,-1.53376 -0.40032,-0.55948 -1.104498,-0.55948 -0.704178,0 -1.109321,0.55948 -0.40032,0.55466 -0.40032,1.53376 0,0.9791 0.40032,1.53858 0.405143,0.55466 1.109321,0.55466 0.704178,0 1.104498,-0.55466 0.405143,-0.55948 0.405143,-1.53858 z m -3.019282,-1.88585 q 0.279742,-0.48231 0.704177,-0.71382 0.429259,-0.23633 1.022505,-0.23633 0.98392,0 1.596458,0.78134 0.617361,0.78135 0.617361,2.05466 0,1.27331 -0.617361,2.05465 -0.612538,0.78135 -1.596458,0.78135 -0.593246,0 -1.022505,-0.23151 -0.424435,-0.23633 -0.704177,-0.71865 v 0.81029 h -0.89228 v -7.5048 h 0.89228 z"
         id="path27615" />
      <path
         d="m 25.515632,112.90255 q -0.713824,0 -1.128614,0.55949 -0.41479,0.55466 -0.41479,1.52411 0,0.96945 0.409967,1.52893 0.41479,0.55466 1.133437,0.55466 0.709,0 1.12379,-0.55948 0.41479,-0.55948 0.41479,-1.52411 0,-0.9598 -0.41479,-1.51929 -0.41479,-0.56431 -1.12379,-0.56431 z m 0,-0.7524 q 1.157552,0 1.818321,0.7524 0.66077,0.75241 0.66077,2.0836 0,1.32636 -0.66077,2.08359 -0.660769,0.75241 -1.818321,0.75241 -1.162376,0 -1.823145,-0.75241 -0.655947,-0.75723 -0.655947,-2.08359 0,-1.33119 0.655947,-2.0836 0.660769,-0.7524 1.823145,-0.7524 z"
         id="path27617" />
      <path
         d="m 30.34359,110.74661 v 1.53376 h 1.827968 v 0.68971 H 30.34359 v 2.93246 q 0,0.66077 0.178456,0.84888 0.183279,0.1881 0.737939,0.1881 h 0.911573 v 0.74276 h -0.911573 q -1.027328,0 -1.418001,-0.38103 -0.390674,-0.38585 -0.390674,-1.39871 v -2.93246 h -0.651124 v -0.68971 h 0.651124 v -1.53376 z"
         id="path27619" />
      <path
         d="m 33.464157,116.45721 h 1.017681 v 1.22507 h -1.017681 z"
         id="path27621" />
    </g>
    <path
       style="fill:#7de847;fill-opacity:0.992277;stroke:#ff0808;stroke-width:2;stroke-linecap:round;stroke-linejoin:round;stroke-miterlimit:4;stroke-dasharray:none;stroke-opacity:1;paint-order:markers fill stroke"
       d="M 160.8002,38.999822 H 10.800196"
       id="path13085" />
    <path
       style="fill:#7de847;fill-opacity:0.992277;stroke:#ff0808;stroke-width:2;stroke-linecap:round;stroke-linejoin:round;stroke-miterlimit:4;stroke-dasharray:none;stroke-opacity:1;paint-order:markers fill stroke"
       d="M 160.8002,98.999822 H 10.800196"
       id="path13087" />
    <path
       style="fill:#7de847;fill-opacity:0.992277;stroke:#3e08ff;stroke-width:2;stroke-linecap:round;stroke-linejoin:round;stroke-miterlimit:4;stroke-dasharray:none;stroke-opacity:1;marker-start:url(#Arrow1Sstart);marker-end:url(#Arrow1Send);paint-order:markers fill stroke"
       d="m 145.8002,43.595744 v 50.80816"
       id="path13122" />
    <g
       aria-label="0"
       id="text15602"
       style="font-size:12.7px;line-height:1;letter-spacing:0px;word-spacing:0px;stroke-width:0.264583">
      <path
         d="m -4.199804,20.189203 q -0.9673828,0 -1.4572754,0.954981 -0.4836914,0.948779 -0.4836914,2.85874 0,1.90376 0.4836914,2.85874 0.4898926,0.94878 1.4572754,0.94878 0.973584,0 1.4572754,-0.94878 0.4898926,-0.95498 0.4898926,-2.85874 0,-1.909961 -0.4898926,-2.85874 Q -3.22622,20.189203 -4.199804,20.189203 Z m 0,-0.992187 q 1.5564941,0 2.3750488,1.234033 0.82475585,1.227832 0.82475585,3.571875 0,2.337842 -0.82475585,3.571875 -0.8185547,1.227832 -2.3750488,1.227832 -1.5564941,0 -2.3812499,-1.227832 -0.8185547,-1.234033 -0.8185547,-3.571875 0,-2.344043 0.8185547,-3.571875 0.8247558,-1.234033 2.3812499,-1.234033 z"
         id="path27714" />
    </g>
    <g
       aria-label="1"
       id="text17622"
       style="font-size:12.7px;line-height:1;letter-spacing:0px;word-spacing:0px;stroke-width:0.264583">
      <path
         d="m -6.7763905,57.574795 h 2.0463867 V 50.51166 l -2.2262207,0.446484 v -1.141015 l 2.2138184,-0.446484 h 1.2526367 v 8.20415 h 2.0463867 v 1.054199 h -5.3330078 z"
         id="path27717" />
    </g>
    <g
       aria-label="2"
       id="text18358"
       style="font-size:12.7px;line-height:1;letter-spacing:0px;word-spacing:0px;stroke-width:0.264583">
      <path
         d="m -5.6322754,87.574799 h 4.3718261 v 1.054199 h -5.8787109 v -1.054199 q 0.7131348,-0.73794 1.9409668,-1.978174 1.2340332,-1.246436 1.5502929,-1.606104 0.6015137,-0.675927 0.8371582,-1.141015 0.2418457,-0.471289 0.2418457,-0.923975 0,-0.737939 -0.5208984,-1.203027 -0.5146973,-0.465088 -1.3456543,-0.465088 -0.5891113,0 -1.2464355,0.204639 -0.651123,0.204638 -1.3952637,0.620117 v -1.265039 q 0.756543,-0.303858 1.4138672,-0.458887 0.6573242,-0.155029 1.2030273,-0.155029 1.4386719,0 2.2944336,0.719336 0.8557617,0.719336 0.8557617,1.922363 0,0.570508 -0.217041,1.085205 -0.2108398,0.508496 -0.7751465,1.203027 -0.1550293,0.179834 -0.9859863,1.041797 -0.830957,0.855762 -2.3440429,2.399854 z"
         id="path27720" />
    </g>
    <g
       aria-label="3"
       id="text18368"
       style="font-size:12.7px;line-height:1;letter-spacing:0px;word-spacing:0px;stroke-width:0.264583">
      <path
         d="m -3.0618893,113.63705 q 0.8991699,0.19224 1.4014648,0.79996 0.5084961,0.60771 0.5084961,1.50068 0,1.37046 -0.9425781,2.1208 -0.9425782,0.75034 -2.6789063,0.75034 -0.5829101,0 -1.2030273,-0.11782 -0.613916,-0.11162 -1.2712402,-0.34106 v -1.20923 q 0.5208984,0.30385 1.1410156,0.45888 0.6201172,0.15503 1.2960449,0.15503 1.1782227,0 1.7921387,-0.46509 0.6201171,-0.46508 0.6201171,-1.35185 0,-0.81856 -0.5767089,-1.27744 -0.5705078,-0.46509 -1.5937012,-0.46509 H -5.647778 v -1.02939 h 1.1286133 q 0.9239746,0 1.4138672,-0.36587 0.4898925,-0.37207 0.4898925,-1.06661 0,-0.71313 -0.5084961,-1.0914 -0.5022949,-0.38447 -1.444873,-0.38447 -0.5146972,0 -1.1038086,0.11162 -0.5891113,0.11162 -1.2960449,0.34726 v -1.11621 q 0.7131348,-0.19844 1.333252,-0.29765 0.6263183,-0.0992 1.1782226,-0.0992 1.4262695,0 2.2572265,0.65112 0.8309571,0.64492 0.8309571,1.74873 0,0.76895 -0.4402832,1.30225 -0.4402832,0.5271 -1.2526367,0.73173 z"
         id="path27723" />
    </g>
    <g
       aria-label="0"
       id="text27226"
       style="font-size:12.7px;line-height:1;letter-spacing:0px;word-spacing:0px;stroke-width:0.264583">
      <path
         d="m 25.800196,-9.8107982 q -0.967383,0 -1.457275,0.9549805 -0.483692,0.9487793 -0.483692,2.8587402 0,1.9037597 0.483692,2.8587402 0.489892,0.9487793 1.457275,0.9487793 0.973584,0 1.457275,-0.9487793 0.489893,-0.9549805 0.489893,-2.8587402 0,-1.9099609 -0.489893,-2.8587402 -0.483691,-0.9549805 -1.457275,-0.9549805 z m 0,-0.9921878 q 1.556494,0 2.375049,1.2340335 0.824756,1.2278321 0.824756,3.571875 0,2.3378417 -0.824756,3.5718749 -0.818555,1.227832 -2.375049,1.227832 -1.556494,0 -2.38125,-1.227832 -0.818555,-1.2340332 -0.818555,-3.5718749 0,-2.3440429 0.818555,-3.571875 0.824756,-1.2340335 2.38125,-1.2340335 z"
         id="path27726" />
    </g>
    <g
       aria-label="1"
       id="text27230"
       style="font-size:12.7px;line-height:1;letter-spacing:0px;word-spacing:0px;stroke-width:0.264583">
      <path
         d="m 53.223611,-2.425202 h 2.046387 v -7.0631347 l -2.226221,0.4464844 v -1.1410157 l 2.213819,-0.446484 h 1.252636 v 8.20415 h 2.046387 v 1.0541992 h -5.333008 z"
         id="path27729" />
    </g>
    <g
       aria-label="2"
       id="text27234"
       style="font-size:12.7px;line-height:1;letter-spacing:0px;word-spacing:0px;stroke-width:0.264583">
      <path
         d="m 84.367725,-2.3414866 h 4.371826 v 1.0541992 H 82.86084 v -1.0541992 q 0.713135,-0.7379394 1.940967,-1.9781738 1.234033,-1.2464355 1.550293,-1.6061034 0.601513,-0.6759278 0.837158,-1.1410157 0.241845,-0.471289 0.241845,-0.9239746 0,-0.7379394 -0.520898,-1.2030273 -0.514697,-0.4650879 -1.345654,-0.4650879 -0.589112,0 -1.246436,0.2046387 -0.651123,0.2046387 -1.395263,0.6201172 v -1.2650386 q 0.756543,-0.303858 1.413867,-0.458887 0.657324,-0.155029 1.203027,-0.155029 1.438672,0 2.294434,0.7193355 0.855761,0.7193359 0.855761,1.9223632 0,0.5705078 -0.217041,1.0852051 -0.21084,0.5084961 -0.775146,1.2030273 -0.155029,0.179834 -0.985986,1.0417969 -0.830958,0.8557617 -2.344043,2.3998534 z"
         id="path27732" />
    </g>
    <g
       aria-label="3"
       id="text27238"
       style="font-size:12.7px;line-height:1;letter-spacing:0px;word-spacing:0px;stroke-width:0.264583">
      <path
         d="m 116.9381,-6.3691478 q 0.89917,0.1922363 1.40147,0.7999511 0.50849,0.6077149 0.50849,1.5006836 0,1.370459 -0.94258,2.1208008 -0.94257,0.7503417 -2.6789,0.7503417 -0.58291,0 -1.20303,-0.1178222 -0.61392,-0.1116211 -1.27124,-0.3410645 v -1.2092285 q 0.5209,0.3038575 1.14102,0.4588867 0.62011,0.1550293 1.29604,0.1550293 1.17822,0 1.79214,-0.4650878 0.62012,-0.4650879 0.62012,-1.3518555 0,-0.8185547 -0.57671,-1.2774414 -0.57051,-0.4650879 -1.5937,-0.4650879 h -1.07901 v -1.0293945 h 1.12862 q 0.92397,0 1.41386,-0.3658691 0.4899,-0.3720703 0.4899,-1.0666016 0,-0.7131347 -0.5085,-1.0914062 -0.5023,-0.3844726 -1.44487,-0.3844726 -0.5147,0 -1.10381,0.111621 -0.58911,0.1116211 -1.29605,0.3472657 v -1.1162113 q 0.71314,-0.198437 1.33325,-0.297656 0.62632,-0.09922 1.17823,-0.09922 1.42627,0 2.25722,0.651123 0.83096,0.6449223 0.83096,1.7487308 0,0.7689453 -0.44028,1.3022461 -0.44029,0.5270996 -1.25264,0.7317383 z"
         id="path27735" />
    </g>
    <g
       aria-label="4"
       id="text27242"
       style="font-size:12.7px;line-height:1;letter-spacing:0px;word-spacing:0px;stroke-width:0.264583">
      <path
         d="m 146.60635,-9.537946 -3.1626,4.9423339 h 3.1626 z m -0.32866,-1.091406 h 1.57509 v 6.0337399 h 1.32085 v 1.0417968 h -1.32085 v 2.1828125 h -1.24643 v -2.1828125 h -4.17959 v -1.2092285 z"
         id="path27738" />
    </g>
    <path
       style="fill:#7de847;fill-opacity:0.992277;stroke:#3e08ff;stroke-width:2;stroke-linecap:round;stroke-linejoin:round;stroke-miterlimit:4;stroke-dasharray:none;stroke-opacity:1;marker-start:url(#Arrow1Sstart);marker-end:url(#Arrow1Send);paint-order:markers fill stroke"
       d="M 125.07302,113.99982 H 44.527376"
       id="path27324" />
  </g>
</svg>
